<svg xmlns="http://www.w3.org/2000/svg" width="900" height="520" viewBox="0 0 900 520"><style>
		.title{font:700 22px Arial,sans-serif; text-anchor:middle; fill:#222}
		.axis{font:600 14px Arial,sans-serif; fill:#333}.tick{font:11px Arial,sans-serif; fill:#333}.cell{font:12px Arial,sans-serif; fill:#111}.cellbig{font:700 28px Arial,sans-serif; fill:#222}.cellvalue{font:700 24px Arial,sans-serif; fill:#222}
		.grid{stroke:#ddd; stroke-width:1}.bar{fill:#4d7ea8}.line{fill:none; stroke:#4d7ea8; stroke-width:3}.point{fill:#222}.heat-pos{fill:#4d7ea8}.heat-neg{fill:#d45d5d}.matrix{fill:#e7eef6; stroke:#fff; stroke-width:2}
	</style><text class="title" x="450" y="35">Consumo promedio por dia de semana</text><line x1="90.0" y1="410.0" x2="850.0" y2="410.0" stroke="#222"/><line x1="90.0" y1="70.0" x2="90.0" y2="410.0" stroke="#222"/><text class="axis" x="470.0" y="500" text-anchor="middle">Dia</text><text class="axis" x="22" y="240.0" transform="rotate(-90 22 240.0)" text-anchor="middle">Promedio Global_active_power (kW)</text><rect class="bar" x="92.00" y="77.67" width="104.57" height="332.33"><title>Domingo: 1.2202</title></rect><text class="tick" x="144.29" y="445" text-anchor="end" transform="rotate(-45 144.29 445)">Domingo</text><rect class="bar" x="200.57" y="137.76" width="104.57" height="272.24"><title>Lunes: 0.9995</title></rect><text class="tick" x="252.86" y="445" text-anchor="end" transform="rotate(-45 252.86 445)">Lunes</text><rect class="bar" x="309.14" y="118.63" width="104.57" height="291.37"><title>Martes: 1.0698</title></rect><text class="tick" x="361.43" y="445" text-anchor="end" transform="rotate(-45 361.43 445)">Martes</text><rect class="bar" x="417.71" y="115.14" width="104.57" height="294.86"><title>Miercoles: 1.0826</title></rect><text class="tick" x="470.00" y="445" text-anchor="end" transform="rotate(-45 470.00 445)">Miercoles</text><rect class="bar" x="526.29" y="142.59" width="104.57" height="267.41"><title>Jueves: 0.9818</title></rect><text class="tick" x="578.57" y="445" text-anchor="end" transform="rotate(-45 578.57 445)">Jueves</text><rect class="bar" x="634.86" y="125.82" width="104.57" height="284.18"><title>Viernes: 1.0434</title></rect><text class="tick" x="687.14" y="445" text-anchor="end" transform="rotate(-45 687.14 445)">Viernes</text><rect class="bar" x="743.43" y="70.00" width="104.57" height="340.00"><title>Sabado: 1.2483</title></rect><text class="tick" x="795.71" y="445" text-anchor="end" transform="rotate(-45 795.71 445)">Sabado</text><line class="grid" x1="90.0" y1="410.0" x2="850.0" y2="410.0"/><text class="tick" x="82" y="414.0" text-anchor="end">0.00</text><line class="grid" x1="90.0" y1="342.0" x2="850.0" y2="342.0"/><text class="tick" x="82" y="346.0" text-anchor="end">0.25</text><line class="grid" x1="90.0" y1="274.0" x2="850.0" y2="274.0"/><text class="tick" x="82" y="278.0" text-anchor="end">0.50</text><line class="grid" x1="90.0" y1="206.0" x2="850.0" y2="206.0"/><text class="tick" x="82" y="210.0" text-anchor="end">0.75</text><line class="grid" x1="90.0" y1="138.0" x2="850.0" y2="138.0"/><text class="tick" x="82" y="142.0" text-anchor="end">1.00</text><line class="grid" x1="90.0" y1="70.0" x2="850.0" y2="70.0"/><text class="tick" x="82" y="74.0" text-anchor="end">1.25</text></svg>