<svg xmlns="http://www.w3.org/2000/svg" width="900" height="520" viewBox="0 0 900 520"><style>
		.title{font:700 22px Arial,sans-serif; text-anchor:middle; fill:#222}
		.axis{font:600 14px Arial,sans-serif; fill:#333}.tick{font:11px Arial,sans-serif; fill:#333}.cell{font:12px Arial,sans-serif; fill:#111}.cellbig{font:700 28px Arial,sans-serif; fill:#222}.cellvalue{font:700 24px Arial,sans-serif; fill:#222}
		.grid{stroke:#ddd; stroke-width:1}.bar{fill:#4d7ea8}.line{fill:none; stroke:#4d7ea8; stroke-width:3}.point{fill:#222}.heat-pos{fill:#4d7ea8}.heat-neg{fill:#d45d5d}.matrix{fill:#e7eef6; stroke:#fff; stroke-width:2}
	</style><text class="title" x="450" y="35">Consumo promedio por mes</text><line x1="90.0" y1="410.0" x2="850.0" y2="410.0" stroke="#222"/><line x1="90.0" y1="70.0" x2="90.0" y2="410.0" stroke="#222"/><text class="axis" x="470.0" y="500" text-anchor="middle">Mes</text><text class="axis" x="22" y="240.0" transform="rotate(-90 22 240.0)" text-anchor="middle">Promedio Global_active_power (kW)</text><rect class="bar" x="92.00" y="76.28" width="59.33" height="333.72"><title>Enero: 1.4622</title></rect><text class="tick" x="121.67" y="445" text-anchor="end" transform="rotate(-45 121.67 445)">Enero</text><rect class="bar" x="155.33" y="113.20" width="59.33" height="296.80"><title>Febrero: 1.3004</title></rect><text class="tick" x="185.00" y="445" text-anchor="end" transform="rotate(-45 185.00 445)">Febrero</text><rect class="bar" x="218.67" y="128.97" width="59.33" height="281.03"><title>Marzo: 1.2313</title></rect><text class="tick" x="248.33" y="445" text-anchor="end" transform="rotate(-45 248.33 445)">Marzo</text><rect class="bar" x="282.00" y="171.01" width="59.33" height="238.99"><title>Abril: 1.0471</title></rect><text class="tick" x="311.67" y="445" text-anchor="end" transform="rotate(-45 311.67 445)">Abril</text><rect class="bar" x="345.33" y="175.02" width="59.33" height="234.98"><title>Mayo: 1.0296</title></rect><text class="tick" x="375.00" y="445" text-anchor="end">Mayo</text><rect class="bar" x="408.67" y="202.51" width="59.33" height="207.49"><title>Junio: 0.9091</title></rect><text class="tick" x="438.33" y="445" text-anchor="end" transform="rotate(-45 438.33 445)">Junio</text><rect class="bar" x="472.00" y="250.16" width="59.33" height="159.84"><title>Julio: 0.7004</title></rect><text class="tick" x="501.67" y="445" text-anchor="end" transform="rotate(-45 501.67 445)">Julio</text><rect class="bar" x="535.33" y="279.27" width="59.33" height="130.73"><title>Agosto: 0.5728</title></rect><text class="tick" x="565.00" y="445" text-anchor="end" transform="rotate(-45 565.00 445)">Agosto</text><rect class="bar" x="598.67" y="187.33" width="59.33" height="222.67"><title>Setiembre: 0.9757</title></rect><text class="tick" x="628.33" y="445" text-anchor="end" transform="rotate(-45 628.33 445)">Setiembre</text><rect class="bar" x="662.00" y="150.47" width="59.33" height="259.53"><title>Octubre: 1.1371</title></rect><text class="tick" x="691.67" y="445" text-anchor="end" transform="rotate(-45 691.67 445)">Octubre</text><rect class="bar" x="725.33" y="115.23" width="59.33" height="294.77"><title>Noviembre: 1.2915</title></rect><text class="tick" x="755.00" y="445" text-anchor="end" transform="rotate(-45 755.00 445)">Noviembre</text><rect class="bar" x="788.67" y="70.00" width="59.33" height="340.00"><title>Diciembre: 1.4897</title></rect><text class="tick" x="818.33" y="445" text-anchor="end" transform="rotate(-45 818.33 445)">Diciembre</text><line class="grid" x1="90.0" y1="410.0" x2="850.0" y2="410.0"/><text class="tick" x="82" y="414.0" text-anchor="end">0.00</text><line class="grid" x1="90.0" y1="342.0" x2="850.0" y2="342.0"/><text class="tick" x="82" y="346.0" text-anchor="end">0.30</text><line class="grid" x1="90.0" y1="274.0" x2="850.0" y2="274.0"/><text class="tick" x="82" y="278.0" text-anchor="end">0.60</text><line class="grid" x1="90.0" y1="206.0" x2="850.0" y2="206.0"/><text class="tick" x="82" y="210.0" text-anchor="end">0.89</text><line class="grid" x1="90.0" y1="138.0" x2="850.0" y2="138.0"/><text class="tick" x="82" y="142.0" text-anchor="end">1.19</text><line class="grid" x1="90.0" y1="70.0" x2="850.0" y2="70.0"/><text class="tick" x="82" y="74.0" text-anchor="end">1.49</text></svg>