<svg xmlns="http://www.w3.org/2000/svg" width="900" height="520" viewBox="0 0 900 520"><style>
		.title{font:700 22px Arial,sans-serif; text-anchor:middle; fill:#222}
		.axis{font:600 14px Arial,sans-serif; fill:#333}.tick{font:11px Arial,sans-serif; fill:#333}.cell{font:12px Arial,sans-serif; fill:#111}.cellbig{font:700 28px Arial,sans-serif; fill:#222}.cellvalue{font:700 24px Arial,sans-serif; fill:#222}
		.grid{stroke:#ddd; stroke-width:1}.bar{fill:#4d7ea8}.line{fill:none; stroke:#4d7ea8; stroke-width:3}.point{fill:#222}.heat-pos{fill:#4d7ea8}.heat-neg{fill:#d45d5d}.matrix{fill:#e7eef6; stroke:#fff; stroke-width:2}
	</style><text class="title" x="450" y="35">Consumo promedio por hora</text><line x1="90.0" y1="410.0" x2="850.0" y2="410.0" stroke="#222"/><line x1="90.0" y1="70.0" x2="90.0" y2="410.0" stroke="#222"/><text class="axis" x="470.0" y="500" text-anchor="middle">Hora</text><text class="axis" x="22" y="240.0" transform="rotate(-90 22 240.0)" text-anchor="middle">Promedio Global_active_power (kW)</text><rect class="bar" x="92.00" y="291.94" width="27.67" height="118.06"><title>00:00: 0.6594</title></rect><text class="tick" x="105.83" y="445" text-anchor="end" transform="rotate(-45 105.83 445)">00:00</text><rect class="bar" x="123.67" y="313.44" width="27.67" height="96.56"><title>01:00: 0.5393</title></rect><text class="tick" x="137.50" y="445" text-anchor="end" transform="rotate(-45 137.50 445)">01:00</text><rect class="bar" x="155.33" y="323.95" width="27.67" height="86.05"><title>02:00: 0.4806</title></rect><text class="tick" x="169.17" y="445" text-anchor="end" transform="rotate(-45 169.17 445)">02:00</text><rect class="bar" x="187.00" y="330.35" width="27.67" height="79.65"><title>03:00: 0.4449</title></rect><text class="tick" x="200.83" y="445" text-anchor="end" transform="rotate(-45 200.83 445)">03:00</text><rect class="bar" x="218.67" y="330.54" width="27.67" height="79.46"><title>04:00: 0.4438</title></rect><text class="tick" x="232.50" y="445" text-anchor="end" transform="rotate(-45 232.50 445)">04:00</text><rect class="bar" x="250.33" y="328.78" width="27.67" height="81.22"><title>05:00: 0.4537</title></rect><text class="tick" x="264.17" y="445" text-anchor="end" transform="rotate(-45 264.17 445)">05:00</text><rect class="bar" x="282.00" y="268.28" width="27.67" height="141.72"><title>06:00: 0.7916</title></rect><text class="tick" x="295.83" y="445" text-anchor="end" transform="rotate(-45 295.83 445)">06:00</text><rect class="bar" x="313.67" y="141.04" width="27.67" height="268.96"><title>07:00: 1.5022</title></rect><text class="tick" x="327.50" y="445" text-anchor="end" transform="rotate(-45 327.50 445)">07:00</text><rect class="bar" x="345.33" y="148.43" width="27.67" height="261.57"><title>08:00: 1.4610</title></rect><text class="tick" x="359.17" y="445" text-anchor="end" transform="rotate(-45 359.17 445)">08:00</text><rect class="bar" x="377.00" y="171.59" width="27.67" height="238.41"><title>09:00: 1.3316</title></rect><text class="tick" x="390.83" y="445" text-anchor="end" transform="rotate(-45 390.83 445)">09:00</text><rect class="bar" x="408.67" y="184.30" width="27.67" height="225.70"><title>10:00: 1.2606</title></rect><text class="tick" x="422.50" y="445" text-anchor="end" transform="rotate(-45 422.50 445)">10:00</text><rect class="bar" x="440.33" y="186.95" width="27.67" height="223.05"><title>11:00: 1.2458</title></rect><text class="tick" x="454.17" y="445" text-anchor="end" transform="rotate(-45 454.17 445)">11:00</text><rect class="bar" x="472.00" y="193.89" width="27.67" height="216.11"><title>12:00: 1.2071</title></rect><text class="tick" x="485.83" y="445" text-anchor="end" transform="rotate(-45 485.83 445)">12:00</text><rect class="bar" x="503.67" y="205.09" width="27.67" height="204.91"><title>13:00: 1.1445</title></rect><text class="tick" x="517.50" y="445" text-anchor="end" transform="rotate(-45 517.50 445)">13:00</text><rect class="bar" x="535.33" y="216.13" width="27.67" height="193.87"><title>14:00: 1.0828</title></rect><text class="tick" x="549.17" y="445" text-anchor="end" transform="rotate(-45 549.17 445)">14:00</text><rect class="bar" x="567.00" y="232.62" width="27.67" height="177.38"><title>15:00: 0.9908</title></rect><text class="tick" x="580.83" y="445" text-anchor="end" transform="rotate(-45 580.83 445)">15:00</text><rect class="bar" x="598.67" y="240.11" width="27.67" height="169.89"><title>16:00: 0.9489</title></rect><text class="tick" x="612.50" y="445" text-anchor="end" transform="rotate(-45 612.50 445)">16:00</text><rect class="bar" x="630.33" y="221.10" width="27.67" height="188.90"><title>17:00: 1.0551</title></rect><text class="tick" x="644.17" y="445" text-anchor="end" transform="rotate(-45 644.17 445)">17:00</text><rect class="bar" x="662.00" y="172.52" width="27.67" height="237.48"><title>18:00: 1.3265</title></rect><text class="tick" x="675.83" y="445" text-anchor="end" transform="rotate(-45 675.83 445)">18:00</text><rect class="bar" x="693.67" y="99.67" width="27.67" height="310.33"><title>19:00: 1.7333</title></rect><text class="tick" x="707.50" y="445" text-anchor="end" transform="rotate(-45 707.50 445)">19:00</text><rect class="bar" x="725.33" y="70.00" width="27.67" height="340.00"><title>20:00: 1.8991</title></rect><text class="tick" x="739.17" y="445" text-anchor="end" transform="rotate(-45 739.17 445)">20:00</text><rect class="bar" x="757.00" y="73.83" width="27.67" height="336.17"><title>21:00: 1.8777</title></rect><text class="tick" x="770.83" y="445" text-anchor="end" transform="rotate(-45 770.83 445)">21:00</text><rect class="bar" x="788.67" y="157.09" width="27.67" height="252.91"><title>22:00: 1.4126</title></rect><text class="tick" x="802.50" y="445" text-anchor="end" transform="rotate(-45 802.50 445)">22:00</text><rect class="bar" x="820.33" y="248.48" width="27.67" height="161.52"><title>23:00: 0.9021</title></rect><text class="tick" x="834.17" y="445" text-anchor="end" transform="rotate(-45 834.17 445)">23:00</text><line class="grid" x1="90.0" y1="410.0" x2="850.0" y2="410.0"/><text class="tick" x="82" y="414.0" text-anchor="end">0.00</text><line class="grid" x1="90.0" y1="342.0" x2="850.0" y2="342.0"/><text class="tick" x="82" y="346.0" text-anchor="end">0.38</text><line class="grid" x1="90.0" y1="274.0" x2="850.0" y2="274.0"/><text class="tick" x="82" y="278.0" text-anchor="end">0.76</text><line class="grid" x1="90.0" y1="206.0" x2="850.0" y2="206.0"/><text class="tick" x="82" y="210.0" text-anchor="end">1.14</text><line class="grid" x1="90.0" y1="138.0" x2="850.0" y2="138.0"/><text class="tick" x="82" y="142.0" text-anchor="end">1.52</text><line class="grid" x1="90.0" y1="70.0" x2="850.0" y2="70.0"/><text class="tick" x="82" y="74.0" text-anchor="end">1.90</text></svg>