<svg xmlns="http://www.w3.org/2000/svg" width="900" height="520" viewBox="0 0 900 520"><style>
		.title{font:700 22px Arial,sans-serif; text-anchor:middle; fill:#222}
		.axis{font:600 14px Arial,sans-serif; fill:#333}.tick{font:11px Arial,sans-serif; fill:#333}.cell{font:12px Arial,sans-serif; fill:#111}.cellbig{font:700 28px Arial,sans-serif; fill:#222}.cellvalue{font:700 24px Arial,sans-serif; fill:#222}
		.grid{stroke:#ddd; stroke-width:1}.bar{fill:#4d7ea8}.line{fill:none; stroke:#4d7ea8; stroke-width:3}.point{fill:#222}.heat-pos{fill:#4d7ea8}.heat-neg{fill:#d45d5d}.matrix{fill:#e7eef6; stroke:#fff; stroke-width:2}
	</style><text class="title" x="450" y="35">Curva de perdida durante entrenamiento</text><line x1="90.0" y1="410.0" x2="850.0" y2="410.0" stroke="#222"/><line x1="90.0" y1="70.0" x2="90.0" y2="410.0" stroke="#222"/><text class="axis" x="470.0" y="500" text-anchor="middle">Iteracion</text><text class="axis" x="22" y="240.0" transform="rotate(-90 22 240.0)" text-anchor="middle">Loss</text><circle class="point" cx="90.00" cy="70.00" r="3"><title>0: 0.693147</title></circle><circle class="point" cx="92.53" cy="70.00" r="3"><title>1: 0.693147</title></circle><circle class="point" cx="95.07" cy="146.55" r="3"><title>2: 0.597557</title></circle><circle class="point" cx="97.60" cy="166.74" r="3"><title>3: 0.572340</title></circle><circle class="point" cx="100.13" cy="175.73" r="3"><title>4: 0.561117</title></circle><circle class="point" cx="102.67" cy="181.90" r="3"><title>5: 0.553400</title></circle><circle class="point" cx="105.20" cy="187.20" r="3"><title>6: 0.546787</title></circle><circle class="point" cx="107.73" cy="192.12" r="3"><title>7: 0.540637</title></circle><circle class="point" cx="110.27" cy="196.83" r="3"><title>8: 0.534761</title></circle><circle class="point" cx="112.80" cy="201.37" r="3"><title>9: 0.529097</title></circle><circle class="point" cx="115.33" cy="205.75" r="3"><title>10: 0.523624</title></circle><circle class="point" cx="117.87" cy="209.99" r="3"><title>11: 0.518328</title></circle><circle class="point" cx="120.40" cy="214.09" r="3"><title>12: 0.513203</title></circle><circle class="point" cx="122.93" cy="218.07" r="3"><title>13: 0.508241</title></circle><circle class="point" cx="125.47" cy="221.91" r="3"><title>14: 0.503437</title></circle><circle class="point" cx="128.00" cy="225.64" r="3"><title>15: 0.498784</title></circle><circle class="point" cx="130.53" cy="229.25" r="3"><title>16: 0.494277</title></circle><circle class="point" cx="133.07" cy="232.75" r="3"><title>17: 0.489910</title></circle><circle class="point" cx="135.60" cy="236.13" r="3"><title>18: 0.485678</title></circle><circle class="point" cx="138.13" cy="239.42" r="3"><title>19: 0.481576</title></circle><circle class="point" cx="140.67" cy="242.60" r="3"><title>20: 0.477598</title></circle><circle class="point" cx="143.20" cy="245.69" r="3"><title>21: 0.473742</title></circle><circle class="point" cx="145.73" cy="248.69" r="3"><title>22: 0.470000</title></circle><circle class="point" cx="148.27" cy="251.60" r="3"><title>23: 0.466370</title></circle><circle class="point" cx="150.80" cy="254.42" r="3"><title>24: 0.462847</title></circle><circle class="point" cx="153.33" cy="257.16" r="3"><title>25: 0.459427</title></circle><circle class="point" cx="155.87" cy="259.81" r="3"><title>26: 0.456106</title></circle><circle class="point" cx="158.40" cy="262.40" r="3"><title>27: 0.452881</title></circle><circle class="point" cx="160.93" cy="264.91" r="3"><title>28: 0.449747</title></circle><circle class="point" cx="163.47" cy="267.35" r="3"><title>29: 0.446701</title></circle><circle class="point" cx="166.00" cy="269.72" r="3"><title>30: 0.443741</title></circle><circle class="point" cx="168.53" cy="272.02" r="3"><title>31: 0.440862</title></circle><circle class="point" cx="171.07" cy="274.26" r="3"><title>32: 0.438063</title></circle><circle class="point" cx="173.60" cy="276.44" r="3"><title>33: 0.435339</title></circle><circle class="point" cx="176.13" cy="278.57" r="3"><title>34: 0.432689</title></circle><circle class="point" cx="178.67" cy="280.63" r="3"><title>35: 0.430108</title></circle><circle class="point" cx="181.20" cy="282.64" r="3"><title>36: 0.427596</title></circle><circle class="point" cx="183.73" cy="284.60" r="3"><title>37: 0.425150</title></circle><circle class="point" cx="186.27" cy="286.51" r="3"><title>38: 0.422766</title></circle><circle class="point" cx="188.80" cy="288.37" r="3"><title>39: 0.420443</title></circle><circle class="point" cx="191.33" cy="290.19" r="3"><title>40: 0.418179</title></circle><circle class="point" cx="193.87" cy="291.95" r="3"><title>41: 0.415972</title></circle><circle class="point" cx="196.40" cy="293.68" r="3"><title>42: 0.413819</title></circle><circle class="point" cx="198.93" cy="295.36" r="3"><title>43: 0.411719</title></circle><circle class="point" cx="201.47" cy="297.00" r="3"><title>44: 0.409669</title></circle><circle class="point" cx="204.00" cy="298.60" r="3"><title>45: 0.407669</title></circle><circle class="point" cx="206.53" cy="300.17" r="3"><title>46: 0.405716</title></circle><circle class="point" cx="209.07" cy="301.69" r="3"><title>47: 0.403809</title></circle><circle class="point" cx="211.60" cy="303.18" r="3"><title>48: 0.401946</title></circle><circle class="point" cx="214.13" cy="304.64" r="3"><title>49: 0.400126</title></circle><circle class="point" cx="216.67" cy="306.07" r="3"><title>50: 0.398348</title></circle><circle class="point" cx="219.20" cy="307.46" r="3"><title>51: 0.396609</title></circle><circle class="point" cx="221.73" cy="308.82" r="3"><title>52: 0.394909</title></circle><circle class="point" cx="224.27" cy="310.15" r="3"><title>53: 0.393246</title></circle><circle class="point" cx="226.80" cy="311.45" r="3"><title>54: 0.391619</title></circle><circle class="point" cx="229.33" cy="312.73" r="3"><title>55: 0.390027</title></circle><circle class="point" cx="231.87" cy="313.98" r="3"><title>56: 0.388469</title></circle><circle class="point" cx="234.40" cy="315.20" r="3"><title>57: 0.386944</title></circle><circle class="point" cx="236.93" cy="316.39" r="3"><title>58: 0.385450</title></circle><circle class="point" cx="239.47" cy="317.57" r="3"><title>59: 0.383987</title></circle><circle class="point" cx="242.00" cy="318.71" r="3"><title>60: 0.382554</title></circle><circle class="point" cx="244.53" cy="319.84" r="3"><title>61: 0.381149</title></circle><circle class="point" cx="247.07" cy="320.94" r="3"><title>62: 0.379773</title></circle><circle class="point" cx="249.60" cy="322.02" r="3"><title>63: 0.378423</title></circle><circle class="point" cx="252.13" cy="323.08" r="3"><title>64: 0.377100</title></circle><circle class="point" cx="254.67" cy="324.12" r="3"><title>65: 0.375802</title></circle><circle class="point" cx="257.20" cy="325.14" r="3"><title>66: 0.374528</title></circle><circle class="point" cx="259.73" cy="326.14" r="3"><title>67: 0.373279</title></circle><circle class="point" cx="262.27" cy="327.12" r="3"><title>68: 0.372053</title></circle><circle class="point" cx="264.80" cy="328.09" r="3"><title>69: 0.370849</title></circle><circle class="point" cx="267.33" cy="329.03" r="3"><title>70: 0.369667</title></circle><circle class="point" cx="269.87" cy="329.96" r="3"><title>71: 0.368507</title></circle><circle class="point" cx="272.40" cy="330.87" r="3"><title>72: 0.367367</title></circle><circle class="point" cx="274.93" cy="331.77" r="3"><title>73: 0.366247</title></circle><circle class="point" cx="277.47" cy="332.65" r="3"><title>74: 0.365146</title></circle><circle class="point" cx="280.00" cy="333.52" r="3"><title>75: 0.364064</title></circle><circle class="point" cx="282.53" cy="334.37" r="3"><title>76: 0.363001</title></circle><circle class="point" cx="285.07" cy="335.21" r="3"><title>77: 0.361955</title></circle><circle class="point" cx="287.60" cy="336.03" r="3"><title>78: 0.360927</title></circle><circle class="point" cx="290.13" cy="336.84" r="3"><title>79: 0.359916</title></circle><circle class="point" cx="292.67" cy="337.64" r="3"><title>80: 0.358921</title></circle><circle class="point" cx="295.20" cy="338.42" r="3"><title>81: 0.357942</title></circle><circle class="point" cx="297.73" cy="339.19" r="3"><title>82: 0.356978</title></circle><circle class="point" cx="300.27" cy="339.95" r="3"><title>83: 0.356030</title></circle><circle class="point" cx="302.80" cy="340.70" r="3"><title>84: 0.355096</title></circle><circle class="point" cx="305.33" cy="341.44" r="3"><title>85: 0.354177</title></circle><circle class="point" cx="307.87" cy="342.16" r="3"><title>86: 0.353271</title></circle><circle class="point" cx="310.40" cy="342.88" r="3"><title>87: 0.352379</title></circle><circle class="point" cx="312.93" cy="343.58" r="3"><title>88: 0.351501</title></circle><circle class="point" cx="315.47" cy="344.27" r="3"><title>89: 0.350635</title></circle><circle class="point" cx="318.00" cy="344.96" r="3"><title>90: 0.349782</title></circle><circle class="point" cx="320.53" cy="345.63" r="3"><title>91: 0.348941</title></circle><circle class="point" cx="323.07" cy="346.29" r="3"><title>92: 0.348112</title></circle><circle class="point" cx="325.60" cy="346.95" r="3"><title>93: 0.347294</title></circle><circle class="point" cx="328.13" cy="347.59" r="3"><title>94: 0.346488</title></circle><circle class="point" cx="330.67" cy="348.23" r="3"><title>95: 0.345693</title></circle><circle class="point" cx="333.20" cy="348.86" r="3"><title>96: 0.344909</title></circle><circle class="point" cx="335.73" cy="349.48" r="3"><title>97: 0.344135</title></circle><circle class="point" cx="338.27" cy="350.09" r="3"><title>98: 0.343371</title></circle><circle class="point" cx="340.80" cy="350.69" r="3"><title>99: 0.342618</title></circle><circle class="point" cx="343.33" cy="351.29" r="3"><title>100: 0.341874</title></circle><circle class="point" cx="345.87" cy="351.88" r="3"><title>101: 0.341140</title></circle><circle class="point" cx="348.40" cy="352.46" r="3"><title>102: 0.340415</title></circle><circle class="point" cx="350.93" cy="353.03" r="3"><title>103: 0.339700</title></circle><circle class="point" cx="353.47" cy="353.60" r="3"><title>104: 0.338993</title></circle><circle class="point" cx="356.00" cy="354.15" r="3"><title>105: 0.338295</title></circle><circle class="point" cx="358.53" cy="354.71" r="3"><title>106: 0.337605</title></circle><circle class="point" cx="361.07" cy="355.25" r="3"><title>107: 0.336924</title></circle><circle class="point" cx="363.60" cy="355.79" r="3"><title>108: 0.336251</title></circle><circle class="point" cx="366.13" cy="356.32" r="3"><title>109: 0.335585</title></circle><circle class="point" cx="368.67" cy="356.85" r="3"><title>110: 0.334928</title></circle><circle class="point" cx="371.20" cy="357.37" r="3"><title>111: 0.334278</title></circle><circle class="point" cx="373.73" cy="357.89" r="3"><title>112: 0.333636</title></circle><circle class="point" cx="376.27" cy="358.39" r="3"><title>113: 0.333000</title></circle><circle class="point" cx="378.80" cy="358.90" r="3"><title>114: 0.332372</title></circle><circle class="point" cx="381.33" cy="359.39" r="3"><title>115: 0.331751</title></circle><circle class="point" cx="383.87" cy="359.89" r="3"><title>116: 0.331137</title></circle><circle class="point" cx="386.40" cy="360.37" r="3"><title>117: 0.330529</title></circle><circle class="point" cx="388.93" cy="360.85" r="3"><title>118: 0.329928</title></circle><circle class="point" cx="391.47" cy="361.33" r="3"><title>119: 0.329333</title></circle><circle class="point" cx="394.00" cy="361.80" r="3"><title>120: 0.328744</title></circle><circle class="point" cx="396.53" cy="362.27" r="3"><title>121: 0.328162</title></circle><circle class="point" cx="399.07" cy="362.73" r="3"><title>122: 0.327585</title></circle><circle class="point" cx="401.60" cy="363.19" r="3"><title>123: 0.327015</title></circle><circle class="point" cx="404.13" cy="363.64" r="3"><title>124: 0.326450</title></circle><circle class="point" cx="406.67" cy="364.09" r="3"><title>125: 0.325891</title></circle><circle class="point" cx="409.20" cy="364.53" r="3"><title>126: 0.325337</title></circle><circle class="point" cx="411.73" cy="364.97" r="3"><title>127: 0.324789</title></circle><circle class="point" cx="414.27" cy="365.40" r="3"><title>128: 0.324246</title></circle><circle class="point" cx="416.80" cy="365.83" r="3"><title>129: 0.323708</title></circle><circle class="point" cx="419.33" cy="366.26" r="3"><title>130: 0.323176</title></circle><circle class="point" cx="421.87" cy="366.68" r="3"><title>131: 0.322648</title></circle><circle class="point" cx="424.40" cy="367.10" r="3"><title>132: 0.322126</title></circle><circle class="point" cx="426.93" cy="367.52" r="3"><title>133: 0.321608</title></circle><circle class="point" cx="429.47" cy="367.93" r="3"><title>134: 0.321095</title></circle><circle class="point" cx="432.00" cy="368.33" r="3"><title>135: 0.320586</title></circle><circle class="point" cx="434.53" cy="368.74" r="3"><title>136: 0.320082</title></circle><circle class="point" cx="437.07" cy="369.14" r="3"><title>137: 0.319583</title></circle><circle class="point" cx="439.60" cy="369.53" r="3"><title>138: 0.319088</title></circle><circle class="point" cx="442.13" cy="369.93" r="3"><title>139: 0.318597</title></circle><circle class="point" cx="444.67" cy="370.32" r="3"><title>140: 0.318111</title></circle><circle class="point" cx="447.20" cy="370.70" r="3"><title>141: 0.317629</title></circle><circle class="point" cx="449.73" cy="371.09" r="3"><title>142: 0.317150</title></circle><circle class="point" cx="452.27" cy="371.47" r="3"><title>143: 0.316676</title></circle><circle class="point" cx="454.80" cy="371.84" r="3"><title>144: 0.316206</title></circle><circle class="point" cx="457.33" cy="372.22" r="3"><title>145: 0.315740</title></circle><circle class="point" cx="459.87" cy="372.59" r="3"><title>146: 0.315277</title></circle><circle class="point" cx="462.40" cy="372.95" r="3"><title>147: 0.314818</title></circle><circle class="point" cx="464.93" cy="373.32" r="3"><title>148: 0.314363</title></circle><circle class="point" cx="467.47" cy="373.68" r="3"><title>149: 0.313912</title></circle><circle class="point" cx="470.00" cy="374.04" r="3"><title>150: 0.313464</title></circle><circle class="point" cx="472.53" cy="374.39" r="3"><title>151: 0.313019</title></circle><circle class="point" cx="475.07" cy="374.75" r="3"><title>152: 0.312578</title></circle><circle class="point" cx="477.60" cy="375.10" r="3"><title>153: 0.312141</title></circle><circle class="point" cx="480.13" cy="375.45" r="3"><title>154: 0.311706</title></circle><circle class="point" cx="482.67" cy="375.79" r="3"><title>155: 0.311275</title></circle><circle class="point" cx="485.20" cy="376.13" r="3"><title>156: 0.310848</title></circle><circle class="point" cx="487.73" cy="376.47" r="3"><title>157: 0.310423</title></circle><circle class="point" cx="490.27" cy="376.81" r="3"><title>158: 0.310002</title></circle><circle class="point" cx="492.80" cy="377.15" r="3"><title>159: 0.309583</title></circle><circle class="point" cx="495.33" cy="377.48" r="3"><title>160: 0.309168</title></circle><circle class="point" cx="497.87" cy="377.81" r="3"><title>161: 0.308755</title></circle><circle class="point" cx="500.40" cy="378.14" r="3"><title>162: 0.308346</title></circle><circle class="point" cx="502.93" cy="378.46" r="3"><title>163: 0.307939</title></circle><circle class="point" cx="505.47" cy="378.78" r="3"><title>164: 0.307536</title></circle><circle class="point" cx="508.00" cy="379.11" r="3"><title>165: 0.307135</title></circle><circle class="point" cx="510.53" cy="379.42" r="3"><title>166: 0.306737</title></circle><circle class="point" cx="513.07" cy="379.74" r="3"><title>167: 0.306341</title></circle><circle class="point" cx="515.60" cy="380.06" r="3"><title>168: 0.305948</title></circle><circle class="point" cx="518.13" cy="380.37" r="3"><title>169: 0.305558</title></circle><circle class="point" cx="520.67" cy="380.68" r="3"><title>170: 0.305171</title></circle><circle class="point" cx="523.20" cy="380.99" r="3"><title>171: 0.304786</title></circle><circle class="point" cx="525.73" cy="381.29" r="3"><title>172: 0.304403</title></circle><circle class="point" cx="528.27" cy="381.60" r="3"><title>173: 0.304023</title></circle><circle class="point" cx="530.80" cy="381.90" r="3"><title>174: 0.303646</title></circle><circle class="point" cx="533.33" cy="382.20" r="3"><title>175: 0.303271</title></circle><circle class="point" cx="535.87" cy="382.50" r="3"><title>176: 0.302898</title></circle><circle class="point" cx="538.40" cy="382.80" r="3"><title>177: 0.302528</title></circle><circle class="point" cx="540.93" cy="383.09" r="3"><title>178: 0.302160</title></circle><circle class="point" cx="543.47" cy="383.38" r="3"><title>179: 0.301794</title></circle><circle class="point" cx="546.00" cy="383.67" r="3"><title>180: 0.301431</title></circle><circle class="point" cx="548.53" cy="383.96" r="3"><title>181: 0.301069</title></circle><circle class="point" cx="551.07" cy="384.25" r="3"><title>182: 0.300710</title></circle><circle class="point" cx="553.60" cy="384.54" r="3"><title>183: 0.300353</title></circle><circle class="point" cx="556.13" cy="384.82" r="3"><title>184: 0.299999</title></circle><circle class="point" cx="558.67" cy="385.10" r="3"><title>185: 0.299646</title></circle><circle class="point" cx="561.20" cy="385.38" r="3"><title>186: 0.299295</title></circle><circle class="point" cx="563.73" cy="385.66" r="3"><title>187: 0.298947</title></circle><circle class="point" cx="566.27" cy="385.94" r="3"><title>188: 0.298600</title></circle><circle class="point" cx="568.80" cy="386.22" r="3"><title>189: 0.298256</title></circle><circle class="point" cx="571.33" cy="386.49" r="3"><title>190: 0.297913</title></circle><circle class="point" cx="573.87" cy="386.76" r="3"><title>191: 0.297573</title></circle><circle class="point" cx="576.40" cy="387.03" r="3"><title>192: 0.297234</title></circle><circle class="point" cx="578.93" cy="387.30" r="3"><title>193: 0.296898</title></circle><circle class="point" cx="581.47" cy="387.57" r="3"><title>194: 0.296563</title></circle><circle class="point" cx="584.00" cy="387.84" r="3"><title>195: 0.296230</title></circle><circle class="point" cx="586.53" cy="388.10" r="3"><title>196: 0.295899</title></circle><circle class="point" cx="589.07" cy="388.37" r="3"><title>197: 0.295569</title></circle><circle class="point" cx="591.60" cy="388.63" r="3"><title>198: 0.295242</title></circle><circle class="point" cx="594.13" cy="388.89" r="3"><title>199: 0.294916</title></circle><circle class="point" cx="596.67" cy="389.15" r="3"><title>200: 0.294592</title></circle><circle class="point" cx="599.20" cy="389.41" r="3"><title>201: 0.294270</title></circle><circle class="point" cx="601.73" cy="389.66" r="3"><title>202: 0.293949</title></circle><circle class="point" cx="604.27" cy="389.92" r="3"><title>203: 0.293630</title></circle><circle class="point" cx="606.80" cy="390.17" r="3"><title>204: 0.293313</title></circle><circle class="point" cx="609.33" cy="390.43" r="3"><title>205: 0.292997</title></circle><circle class="point" cx="611.87" cy="390.68" r="3"><title>206: 0.292683</title></circle><circle class="point" cx="614.40" cy="390.93" r="3"><title>207: 0.292371</title></circle><circle class="point" cx="616.93" cy="391.18" r="3"><title>208: 0.292060</title></circle><circle class="point" cx="619.47" cy="391.42" r="3"><title>209: 0.291751</title></circle><circle class="point" cx="622.00" cy="391.67" r="3"><title>210: 0.291443</title></circle><circle class="point" cx="624.53" cy="391.92" r="3"><title>211: 0.291137</title></circle><circle class="point" cx="627.07" cy="392.16" r="3"><title>212: 0.290833</title></circle><circle class="point" cx="629.60" cy="392.40" r="3"><title>213: 0.290530</title></circle><circle class="point" cx="632.13" cy="392.64" r="3"><title>214: 0.290228</title></circle><circle class="point" cx="634.67" cy="392.88" r="3"><title>215: 0.289928</title></circle><circle class="point" cx="637.20" cy="393.12" r="3"><title>216: 0.289629</title></circle><circle class="point" cx="639.73" cy="393.36" r="3"><title>217: 0.289332</title></circle><circle class="point" cx="642.27" cy="393.60" r="3"><title>218: 0.289036</title></circle><circle class="point" cx="644.80" cy="393.83" r="3"><title>219: 0.288742</title></circle><circle class="point" cx="647.33" cy="394.07" r="3"><title>220: 0.288449</title></circle><circle class="point" cx="649.87" cy="394.30" r="3"><title>221: 0.288158</title></circle><circle class="point" cx="652.40" cy="394.53" r="3"><title>222: 0.287867</title></circle><circle class="point" cx="654.93" cy="394.77" r="3"><title>223: 0.287578</title></circle><circle class="point" cx="657.47" cy="395.00" r="3"><title>224: 0.287291</title></circle><circle class="point" cx="660.00" cy="395.23" r="3"><title>225: 0.287005</title></circle><circle class="point" cx="662.53" cy="395.45" r="3"><title>226: 0.286720</title></circle><circle class="point" cx="665.07" cy="395.68" r="3"><title>227: 0.286436</title></circle><circle class="point" cx="667.60" cy="395.91" r="3"><title>228: 0.286154</title></circle><circle class="point" cx="670.13" cy="396.13" r="3"><title>229: 0.285873</title></circle><circle class="point" cx="672.67" cy="396.36" r="3"><title>230: 0.285593</title></circle><circle class="point" cx="675.20" cy="396.58" r="3"><title>231: 0.285314</title></circle><circle class="point" cx="677.73" cy="396.80" r="3"><title>232: 0.285037</title></circle><circle class="point" cx="680.27" cy="397.02" r="3"><title>233: 0.284761</title></circle><circle class="point" cx="682.80" cy="397.24" r="3"><title>234: 0.284486</title></circle><circle class="point" cx="685.33" cy="397.46" r="3"><title>235: 0.284213</title></circle><circle class="point" cx="687.87" cy="397.68" r="3"><title>236: 0.283940</title></circle><circle class="point" cx="690.40" cy="397.90" r="3"><title>237: 0.283669</title></circle><circle class="point" cx="692.93" cy="398.11" r="3"><title>238: 0.283399</title></circle><circle class="point" cx="695.47" cy="398.33" r="3"><title>239: 0.283130</title></circle><circle class="point" cx="698.00" cy="398.54" r="3"><title>240: 0.282862</title></circle><circle class="point" cx="700.53" cy="398.76" r="3"><title>241: 0.282595</title></circle><circle class="point" cx="703.07" cy="398.97" r="3"><title>242: 0.282329</title></circle><circle class="point" cx="705.60" cy="399.18" r="3"><title>243: 0.282065</title></circle><circle class="point" cx="708.13" cy="399.39" r="3"><title>244: 0.281802</title></circle><circle class="point" cx="710.67" cy="399.60" r="3"><title>245: 0.281539</title></circle><circle class="point" cx="713.20" cy="399.81" r="3"><title>246: 0.281278</title></circle><circle class="point" cx="715.73" cy="400.02" r="3"><title>247: 0.281018</title></circle><circle class="point" cx="718.27" cy="400.23" r="3"><title>248: 0.280759</title></circle><circle class="point" cx="720.80" cy="400.43" r="3"><title>249: 0.280501</title></circle><circle class="point" cx="723.33" cy="400.64" r="3"><title>250: 0.280244</title></circle><circle class="point" cx="725.87" cy="400.84" r="3"><title>251: 0.279988</title></circle><circle class="point" cx="728.40" cy="401.05" r="3"><title>252: 0.279733</title></circle><circle class="point" cx="730.93" cy="401.25" r="3"><title>253: 0.279479</title></circle><circle class="point" cx="733.47" cy="401.45" r="3"><title>254: 0.279226</title></circle><circle class="point" cx="736.00" cy="401.66" r="3"><title>255: 0.278975</title></circle><circle class="point" cx="738.53" cy="401.86" r="3"><title>256: 0.278724</title></circle><circle class="point" cx="741.07" cy="402.06" r="3"><title>257: 0.278474</title></circle><circle class="point" cx="743.60" cy="402.26" r="3"><title>258: 0.278225</title></circle><circle class="point" cx="746.13" cy="402.45" r="3"><title>259: 0.277977</title></circle><circle class="point" cx="748.67" cy="402.65" r="3"><title>260: 0.277730</title></circle><circle class="point" cx="751.20" cy="402.85" r="3"><title>261: 0.277484</title></circle><circle class="point" cx="753.73" cy="403.05" r="3"><title>262: 0.277239</title></circle><circle class="point" cx="756.27" cy="403.24" r="3"><title>263: 0.276994</title></circle><circle class="point" cx="758.80" cy="403.44" r="3"><title>264: 0.276751</title></circle><circle class="point" cx="761.33" cy="403.63" r="3"><title>265: 0.276509</title></circle><circle class="point" cx="763.87" cy="403.82" r="3"><title>266: 0.276267</title></circle><circle class="point" cx="766.40" cy="404.02" r="3"><title>267: 0.276027</title></circle><circle class="point" cx="768.93" cy="404.21" r="3"><title>268: 0.275787</title></circle><circle class="point" cx="771.47" cy="404.40" r="3"><title>269: 0.275549</title></circle><circle class="point" cx="774.00" cy="404.59" r="3"><title>270: 0.275311</title></circle><circle class="point" cx="776.53" cy="404.78" r="3"><title>271: 0.275074</title></circle><circle class="point" cx="779.07" cy="404.97" r="3"><title>272: 0.274838</title></circle><circle class="point" cx="781.60" cy="405.16" r="3"><title>273: 0.274602</title></circle><circle class="point" cx="784.13" cy="405.34" r="3"><title>274: 0.274368</title></circle><circle class="point" cx="786.67" cy="405.53" r="3"><title>275: 0.274135</title></circle><circle class="point" cx="789.20" cy="405.72" r="3"><title>276: 0.273902</title></circle><circle class="point" cx="791.73" cy="405.90" r="3"><title>277: 0.273670</title></circle><circle class="point" cx="794.27" cy="406.09" r="3"><title>278: 0.273439</title></circle><circle class="point" cx="796.80" cy="406.27" r="3"><title>279: 0.273209</title></circle><circle class="point" cx="799.33" cy="406.46" r="3"><title>280: 0.272979</title></circle><circle class="point" cx="801.87" cy="406.64" r="3"><title>281: 0.272751</title></circle><circle class="point" cx="804.40" cy="406.82" r="3"><title>282: 0.272523</title></circle><circle class="point" cx="806.93" cy="407.00" r="3"><title>283: 0.272296</title></circle><circle class="point" cx="809.47" cy="407.18" r="3"><title>284: 0.272070</title></circle><circle class="point" cx="812.00" cy="407.37" r="3"><title>285: 0.271844</title></circle><circle class="point" cx="814.53" cy="407.55" r="3"><title>286: 0.271620</title></circle><circle class="point" cx="817.07" cy="407.72" r="3"><title>287: 0.271396</title></circle><circle class="point" cx="819.60" cy="407.90" r="3"><title>288: 0.271173</title></circle><circle class="point" cx="822.13" cy="408.08" r="3"><title>289: 0.270951</title></circle><circle class="point" cx="824.67" cy="408.26" r="3"><title>290: 0.270729</title></circle><circle class="point" cx="827.20" cy="408.44" r="3"><title>291: 0.270508</title></circle><circle class="point" cx="829.73" cy="408.61" r="3"><title>292: 0.270288</title></circle><circle class="point" cx="832.27" cy="408.79" r="3"><title>293: 0.270069</title></circle><circle class="point" cx="834.80" cy="408.96" r="3"><title>294: 0.269850</title></circle><circle class="point" cx="837.33" cy="409.14" r="3"><title>295: 0.269633</title></circle><circle class="point" cx="839.87" cy="409.31" r="3"><title>296: 0.269415</title></circle><circle class="point" cx="842.40" cy="409.48" r="3"><title>297: 0.269199</title></circle><circle class="point" cx="844.93" cy="409.66" r="3"><title>298: 0.268983</title></circle><circle class="point" cx="847.47" cy="409.83" r="3"><title>299: 0.268768</title></circle><circle class="point" cx="850.00" cy="410.00" r="3"><title>300: 0.268554</title></circle><polyline class="line" points="90.00,70.00 92.53,70.00 95.07,146.55 97.60,166.74 100.13,175.73 102.67,181.90 105.20,187.20 107.73,192.12 110.27,196.83 112.80,201.37 115.33,205.75 117.87,209.99 120.40,214.09 122.93,218.07 125.47,221.91 128.00,225.64 130.53,229.25 133.07,232.75 135.60,236.13 138.13,239.42 140.67,242.60 143.20,245.69 145.73,248.69 148.27,251.60 150.80,254.42 153.33,257.16 155.87,259.81 158.40,262.40 160.93,264.91 163.47,267.35 166.00,269.72 168.53,272.02 171.07,274.26 173.60,276.44 176.13,278.57 178.67,280.63 181.20,282.64 183.73,284.60 186.27,286.51 188.80,288.37 191.33,290.19 193.87,291.95 196.40,293.68 198.93,295.36 201.47,297.00 204.00,298.60 206.53,300.17 209.07,301.69 211.60,303.18 214.13,304.64 216.67,306.07 219.20,307.46 221.73,308.82 224.27,310.15 226.80,311.45 229.33,312.73 231.87,313.98 234.40,315.20 236.93,316.39 239.47,317.57 242.00,318.71 244.53,319.84 247.07,320.94 249.60,322.02 252.13,323.08 254.67,324.12 257.20,325.14 259.73,326.14 262.27,327.12 264.80,328.09 267.33,329.03 269.87,329.96 272.40,330.87 274.93,331.77 277.47,332.65 280.00,333.52 282.53,334.37 285.07,335.21 287.60,336.03 290.13,336.84 292.67,337.64 295.20,338.42 297.73,339.19 300.27,339.95 302.80,340.70 305.33,341.44 307.87,342.16 310.40,342.88 312.93,343.58 315.47,344.27 318.00,344.96 320.53,345.63 323.07,346.29 325.60,346.95 328.13,347.59 330.67,348.23 333.20,348.86 335.73,349.48 338.27,350.09 340.80,350.69 343.33,351.29 345.87,351.88 348.40,352.46 350.93,353.03 353.47,353.60 356.00,354.15 358.53,354.71 361.07,355.25 363.60,355.79 366.13,356.32 368.67,356.85 371.20,357.37 373.73,357.89 376.27,358.39 378.80,358.90 381.33,359.39 383.87,359.89 386.40,360.37 388.93,360.85 391.47,361.33 394.00,361.80 396.53,362.27 399.07,362.73 401.60,363.19 404.13,363.64 406.67,364.09 409.20,364.53 411.73,364.97 414.27,365.40 416.80,365.83 419.33,366.26 421.87,366.68 424.40,367.10 426.93,367.52 429.47,367.93 432.00,368.33 434.53,368.74 437.07,369.14 439.60,369.53 442.13,369.93 444.67,370.32 447.20,370.70 449.73,371.09 452.27,371.47 454.80,371.84 457.33,372.22 459.87,372.59 462.40,372.95 464.93,373.32 467.47,373.68 470.00,374.04 472.53,374.39 475.07,374.75 477.60,375.10 480.13,375.45 482.67,375.79 485.20,376.13 487.73,376.47 490.27,376.81 492.80,377.15 495.33,377.48 497.87,377.81 500.40,378.14 502.93,378.46 505.47,378.78 508.00,379.11 510.53,379.42 513.07,379.74 515.60,380.06 518.13,380.37 520.67,380.68 523.20,380.99 525.73,381.29 528.27,381.60 530.80,381.90 533.33,382.20 535.87,382.50 538.40,382.80 540.93,383.09 543.47,383.38 546.00,383.67 548.53,383.96 551.07,384.25 553.60,384.54 556.13,384.82 558.67,385.10 561.20,385.38 563.73,385.66 566.27,385.94 568.80,386.22 571.33,386.49 573.87,386.76 576.40,387.03 578.93,387.30 581.47,387.57 584.00,387.84 586.53,388.10 589.07,388.37 591.60,388.63 594.13,388.89 596.67,389.15 599.20,389.41 601.73,389.66 604.27,389.92 606.80,390.17 609.33,390.43 611.87,390.68 614.40,390.93 616.93,391.18 619.47,391.42 622.00,391.67 624.53,391.92 627.07,392.16 629.60,392.40 632.13,392.64 634.67,392.88 637.20,393.12 639.73,393.36 642.27,393.60 644.80,393.83 647.33,394.07 649.87,394.30 652.40,394.53 654.93,394.77 657.47,395.00 660.00,395.23 662.53,395.45 665.07,395.68 667.60,395.91 670.13,396.13 672.67,396.36 675.20,396.58 677.73,396.80 680.27,397.02 682.80,397.24 685.33,397.46 687.87,397.68 690.40,397.90 692.93,398.11 695.47,398.33 698.00,398.54 700.53,398.76 703.07,398.97 705.60,399.18 708.13,399.39 710.67,399.60 713.20,399.81 715.73,400.02 718.27,400.23 720.80,400.43 723.33,400.64 725.87,400.84 728.40,401.05 730.93,401.25 733.47,401.45 736.00,401.66 738.53,401.86 741.07,402.06 743.60,402.26 746.13,402.45 748.67,402.65 751.20,402.85 753.73,403.05 756.27,403.24 758.80,403.44 761.33,403.63 763.87,403.82 766.40,404.02 768.93,404.21 771.47,404.40 774.00,404.59 776.53,404.78 779.07,404.97 781.60,405.16 784.13,405.34 786.67,405.53 789.20,405.72 791.73,405.90 794.27,406.09 796.80,406.27 799.33,406.46 801.87,406.64 804.40,406.82 806.93,407.00 809.47,407.18 812.00,407.37 814.53,407.55 817.07,407.72 819.60,407.90 822.13,408.08 824.67,408.26 827.20,408.44 829.73,408.61 832.27,408.79 834.80,408.96 837.33,409.14 839.87,409.31 842.40,409.48 844.93,409.66 847.47,409.83 850.00,410.00"/><line class="grid" x1="90.0" y1="410.0" x2="850.0" y2="410.0"/><text class="tick" x="82" y="414.0" text-anchor="end">0.269</text><line class="grid" x1="90.0" y1="342.0" x2="850.0" y2="342.0"/><text class="tick" x="82" y="346.0" text-anchor="end">0.353</text><line class="grid" x1="90.0" y1="274.0" x2="850.0" y2="274.0"/><text class="tick" x="82" y="278.0" text-anchor="end">0.438</text><line class="grid" x1="90.0" y1="206.0" x2="850.0" y2="206.0"/><text class="tick" x="82" y="210.0" text-anchor="end">0.523</text><line class="grid" x1="90.0" y1="138.0" x2="850.0" y2="138.0"/><text class="tick" x="82" y="142.0" text-anchor="end">0.608</text><line class="grid" x1="90.0" y1="70.0" x2="850.0" y2="70.0"/><text class="tick" x="82" y="74.0" text-anchor="end">0.693</text></svg>