<svg xmlns="http://www.w3.org/2000/svg" width="900" height="760" viewBox="0 0 900 760"><style>
		.title{font:700 22px Arial,sans-serif; text-anchor:middle; fill:#222}
		.axis{font:600 14px Arial,sans-serif; fill:#333}.tick{font:11px Arial,sans-serif; fill:#333}.cell{font:12px Arial,sans-serif; fill:#111}.cellbig{font:700 28px Arial,sans-serif; fill:#222}.cellvalue{font:700 24px Arial,sans-serif; fill:#222}
		.grid{stroke:#ddd; stroke-width:1}.bar{fill:#4d7ea8}.line{fill:none; stroke:#4d7ea8; stroke-width:3}.point{fill:#222}.heat-pos{fill:#4d7ea8}.heat-neg{fill:#d45d5d}.matrix{fill:#e7eef6; stroke:#fff; stroke-width:2}
	</style><text class="title" x="450" y="35">Matriz de correlacion</text><text class="tick" x="244.0" y="72" text-anchor="end" transform="rotate(-45 244.0 72)">global_active_powe</text><text class="tick" x="200" y="118.0" text-anchor="end">global_active_powe</text><text class="tick" x="312.0" y="72" text-anchor="end" transform="rotate(-45 312.0 72)">global_reactive_po</text><text class="tick" x="200" y="186.0" text-anchor="end">global_reactive_po</text><text class="tick" x="380.0" y="72" text-anchor="end" transform="rotate(-45 380.0 72)">voltage</text><text class="tick" x="200" y="254.0" text-anchor="end">voltage</text><text class="tick" x="448.0" y="72" text-anchor="end" transform="rotate(-45 448.0 72)">global_intensity</text><text class="tick" x="200" y="322.0" text-anchor="end">global_intensity</text><text class="tick" x="516.0" y="72" text-anchor="end" transform="rotate(-45 516.0 72)">sub_metering_1</text><text class="tick" x="200" y="390.0" text-anchor="end">sub_metering_1</text><text class="tick" x="584.0" y="72" text-anchor="end" transform="rotate(-45 584.0 72)">sub_metering_2</text><text class="tick" x="200" y="458.0" text-anchor="end">sub_metering_2</text><text class="tick" x="652.0" y="72" text-anchor="end" transform="rotate(-45 652.0 72)">sub_metering_3</text><text class="tick" x="200" y="526.0" text-anchor="end">sub_metering_3</text><text class="tick" x="720.0" y="72" text-anchor="end" transform="rotate(-45 720.0 72)">other_consumption</text><text class="tick" x="200" y="594.0" text-anchor="end">other_consumption</text><rect class="heat-pos" opacity="1.000" x="210.0" y="80.0" width="66.0" height="66.0"><title>global_active_power vs global_active_power: 1.0000</title></rect><text class="cell" x="244.0" y="118.0" text-anchor="middle">1.00</text><rect class="heat-pos" opacity="0.360" x="278.0" y="80.0" width="66.0" height="66.0"><title>global_active_power vs global_reactive_power: 0.2470</title></rect><text class="cell" x="312.0" y="118.0" text-anchor="middle">0.25</text><rect class="heat-neg" opacity="0.490" x="346.0" y="80.0" width="66.0" height="66.0"><title>global_active_power vs voltage: -0.3998</title></rect><text class="cell" x="380.0" y="118.0" text-anchor="middle">-0.40</text><rect class="heat-pos" opacity="0.999" x="414.0" y="80.0" width="66.0" height="66.0"><title>global_active_power vs global_intensity: 0.9989</title></rect><text class="cell" x="448.0" y="118.0" text-anchor="middle">1.00</text><rect class="heat-pos" opacity="0.562" x="482.0" y="80.0" width="66.0" height="66.0"><title>global_active_power vs sub_metering_1: 0.4844</title></rect><text class="cell" x="516.0" y="118.0" text-anchor="middle">0.48</text><rect class="heat-pos" opacity="0.519" x="550.0" y="80.0" width="66.0" height="66.0"><title>global_active_power vs sub_metering_2: 0.4346</title></rect><text class="cell" x="584.0" y="118.0" text-anchor="middle">0.43</text><rect class="heat-pos" opacity="0.693" x="618.0" y="80.0" width="66.0" height="66.0"><title>global_active_power vs sub_metering_3: 0.6386</title></rect><text class="cell" x="652.0" y="118.0" text-anchor="middle">0.64</text><rect class="heat-pos" opacity="0.746" x="686.0" y="80.0" width="66.0" height="66.0"><title>global_active_power vs other_consumption: 0.7014</title></rect><text class="cell" x="720.0" y="118.0" text-anchor="middle">0.70</text><rect class="heat-pos" opacity="0.360" x="210.0" y="148.0" width="66.0" height="66.0"><title>global_reactive_power vs global_active_power: 0.2470</title></rect><text class="cell" x="244.0" y="186.0" text-anchor="middle">0.25</text><rect class="heat-pos" opacity="1.000" x="278.0" y="148.0" width="66.0" height="66.0"><title>global_reactive_power vs global_reactive_power: 1.0000</title></rect><text class="cell" x="312.0" y="186.0" text-anchor="middle">1.00</text><rect class="heat-neg" opacity="0.245" x="346.0" y="148.0" width="66.0" height="66.0"><title>global_reactive_power vs voltage: -0.1122</title></rect><text class="cell" x="380.0" y="186.0" text-anchor="middle">-0.11</text><rect class="heat-pos" opacity="0.376" x="414.0" y="148.0" width="66.0" height="66.0"><title>global_reactive_power vs global_intensity: 0.2661</title></rect><text class="cell" x="448.0" y="186.0" text-anchor="middle">0.27</text><rect class="heat-pos" opacity="0.255" x="482.0" y="148.0" width="66.0" height="66.0"><title>global_reactive_power vs sub_metering_1: 0.1231</title></rect><text class="cell" x="516.0" y="186.0" text-anchor="middle">0.12</text><rect class="heat-pos" opacity="0.268" x="550.0" y="148.0" width="66.0" height="66.0"><title>global_reactive_power vs sub_metering_2: 0.1392</title></rect><text class="cell" x="584.0" y="186.0" text-anchor="middle">0.14</text><rect class="heat-pos" opacity="0.226" x="618.0" y="148.0" width="66.0" height="66.0"><title>global_reactive_power vs sub_metering_3: 0.0896</title></rect><text class="cell" x="652.0" y="186.0" text-anchor="middle">0.09</text><rect class="heat-pos" opacity="0.330" x="686.0" y="148.0" width="66.0" height="66.0"><title>global_reactive_power vs other_consumption: 0.2116</title></rect><text class="cell" x="720.0" y="186.0" text-anchor="middle">0.21</text><rect class="heat-neg" opacity="0.490" x="210.0" y="216.0" width="66.0" height="66.0"><title>voltage vs global_active_power: -0.3998</title></rect><text class="cell" x="244.0" y="254.0" text-anchor="middle">-0.40</text><rect class="heat-neg" opacity="0.245" x="278.0" y="216.0" width="66.0" height="66.0"><title>voltage vs global_reactive_power: -0.1122</title></rect><text class="cell" x="312.0" y="254.0" text-anchor="middle">-0.11</text><rect class="heat-pos" opacity="1.000" x="346.0" y="216.0" width="66.0" height="66.0"><title>voltage vs voltage: 1.0000</title></rect><text class="cell" x="380.0" y="254.0" text-anchor="middle">1.00</text><rect class="heat-neg" opacity="0.500" x="414.0" y="216.0" width="66.0" height="66.0"><title>voltage vs global_intensity: -0.4114</title></rect><text class="cell" x="448.0" y="254.0" text-anchor="middle">-0.41</text><rect class="heat-neg" opacity="0.317" x="482.0" y="216.0" width="66.0" height="66.0"><title>voltage vs sub_metering_1: -0.1960</title></rect><text class="cell" x="516.0" y="254.0" text-anchor="middle">-0.20</text><rect class="heat-neg" opacity="0.292" x="550.0" y="216.0" width="66.0" height="66.0"><title>voltage vs sub_metering_2: -0.1674</title></rect><text class="cell" x="584.0" y="254.0" text-anchor="middle">-0.17</text><rect class="heat-neg" opacity="0.378" x="618.0" y="216.0" width="66.0" height="66.0"><title>voltage vs sub_metering_3: -0.2682</title></rect><text class="cell" x="652.0" y="254.0" text-anchor="middle">-0.27</text><rect class="heat-neg" opacity="0.381" x="686.0" y="216.0" width="66.0" height="66.0"><title>voltage vs other_consumption: -0.2714</title></rect><text class="cell" x="720.0" y="254.0" text-anchor="middle">-0.27</text><rect class="heat-pos" opacity="0.999" x="210.0" y="284.0" width="66.0" height="66.0"><title>global_intensity vs global_active_power: 0.9989</title></rect><text class="cell" x="244.0" y="322.0" text-anchor="middle">1.00</text><rect class="heat-pos" opacity="0.376" x="278.0" y="284.0" width="66.0" height="66.0"><title>global_intensity vs global_reactive_power: 0.2661</title></rect><text class="cell" x="312.0" y="322.0" text-anchor="middle">0.27</text><rect class="heat-neg" opacity="0.500" x="346.0" y="284.0" width="66.0" height="66.0"><title>global_intensity vs voltage: -0.4114</title></rect><text class="cell" x="380.0" y="322.0" text-anchor="middle">-0.41</text><rect class="heat-pos" opacity="1.000" x="414.0" y="284.0" width="66.0" height="66.0"><title>global_intensity vs global_intensity: 1.0000</title></rect><text class="cell" x="448.0" y="322.0" text-anchor="middle">1.00</text><rect class="heat-pos" opacity="0.566" x="482.0" y="284.0" width="66.0" height="66.0"><title>global_intensity vs sub_metering_1: 0.4893</title></rect><text class="cell" x="516.0" y="322.0" text-anchor="middle">0.49</text><rect class="heat-pos" opacity="0.524" x="550.0" y="284.0" width="66.0" height="66.0"><title>global_intensity vs sub_metering_2: 0.4403</title></rect><text class="cell" x="584.0" y="322.0" text-anchor="middle">0.44</text><rect class="heat-pos" opacity="0.683" x="618.0" y="284.0" width="66.0" height="66.0"><title>global_intensity vs sub_metering_3: 0.6265</title></rect><text class="cell" x="652.0" y="322.0" text-anchor="middle">0.63</text><rect class="heat-pos" opacity="0.748" x="686.0" y="284.0" width="66.0" height="66.0"><title>global_intensity vs other_consumption: 0.7033</title></rect><text class="cell" x="720.0" y="322.0" text-anchor="middle">0.70</text><rect class="heat-pos" opacity="0.562" x="210.0" y="352.0" width="66.0" height="66.0"><title>sub_metering_1 vs global_active_power: 0.4844</title></rect><text class="cell" x="244.0" y="390.0" text-anchor="middle">0.48</text><rect class="heat-pos" opacity="0.255" x="278.0" y="352.0" width="66.0" height="66.0"><title>sub_metering_1 vs global_reactive_power: 0.1231</title></rect><text class="cell" x="312.0" y="390.0" text-anchor="middle">0.12</text><rect class="heat-neg" opacity="0.317" x="346.0" y="352.0" width="66.0" height="66.0"><title>sub_metering_1 vs voltage: -0.1960</title></rect><text class="cell" x="380.0" y="390.0" text-anchor="middle">-0.20</text><rect class="heat-pos" opacity="0.566" x="414.0" y="352.0" width="66.0" height="66.0"><title>sub_metering_1 vs global_intensity: 0.4893</title></rect><text class="cell" x="448.0" y="390.0" text-anchor="middle">0.49</text><rect class="heat-pos" opacity="1.000" x="482.0" y="352.0" width="66.0" height="66.0"><title>sub_metering_1 vs sub_metering_1: 1.0000</title></rect><text class="cell" x="516.0" y="390.0" text-anchor="middle">1.00</text><rect class="heat-pos" opacity="0.197" x="550.0" y="352.0" width="66.0" height="66.0"><title>sub_metering_1 vs sub_metering_2: 0.0547</title></rect><text class="cell" x="584.0" y="390.0" text-anchor="middle">0.05</text><rect class="heat-pos" opacity="0.237" x="618.0" y="352.0" width="66.0" height="66.0"><title>sub_metering_1 vs sub_metering_3: 0.1026</title></rect><text class="cell" x="652.0" y="390.0" text-anchor="middle">0.10</text><rect class="heat-pos" opacity="0.256" x="686.0" y="352.0" width="66.0" height="66.0"><title>sub_metering_1 vs other_consumption: 0.1251</title></rect><text class="cell" x="720.0" y="390.0" text-anchor="middle">0.13</text><rect class="heat-pos" opacity="0.519" x="210.0" y="420.0" width="66.0" height="66.0"><title>sub_metering_2 vs global_active_power: 0.4346</title></rect><text class="cell" x="244.0" y="458.0" text-anchor="middle">0.43</text><rect class="heat-pos" opacity="0.268" x="278.0" y="420.0" width="66.0" height="66.0"><title>sub_metering_2 vs global_reactive_power: 0.1392</title></rect><text class="cell" x="312.0" y="458.0" text-anchor="middle">0.14</text><rect class="heat-neg" opacity="0.292" x="346.0" y="420.0" width="66.0" height="66.0"><title>sub_metering_2 vs voltage: -0.1674</title></rect><text class="cell" x="380.0" y="458.0" text-anchor="middle">-0.17</text><rect class="heat-pos" opacity="0.524" x="414.0" y="420.0" width="66.0" height="66.0"><title>sub_metering_2 vs global_intensity: 0.4403</title></rect><text class="cell" x="448.0" y="458.0" text-anchor="middle">0.44</text><rect class="heat-pos" opacity="0.197" x="482.0" y="420.0" width="66.0" height="66.0"><title>sub_metering_2 vs sub_metering_1: 0.0547</title></rect><text class="cell" x="516.0" y="458.0" text-anchor="middle">0.05</text><rect class="heat-pos" opacity="1.000" x="550.0" y="420.0" width="66.0" height="66.0"><title>sub_metering_2 vs sub_metering_2: 1.0000</title></rect><text class="cell" x="584.0" y="458.0" text-anchor="middle">1.00</text><rect class="heat-pos" opacity="0.219" x="618.0" y="420.0" width="66.0" height="66.0"><title>sub_metering_2 vs sub_metering_3: 0.0809</title></rect><text class="cell" x="652.0" y="458.0" text-anchor="middle">0.08</text><rect class="heat-pos" opacity="0.222" x="686.0" y="420.0" width="66.0" height="66.0"><title>sub_metering_2 vs other_consumption: 0.0852</title></rect><text class="cell" x="720.0" y="458.0" text-anchor="middle">0.09</text><rect class="heat-pos" opacity="0.693" x="210.0" y="488.0" width="66.0" height="66.0"><title>sub_metering_3 vs global_active_power: 0.6386</title></rect><text class="cell" x="244.0" y="526.0" text-anchor="middle">0.64</text><rect class="heat-pos" opacity="0.226" x="278.0" y="488.0" width="66.0" height="66.0"><title>sub_metering_3 vs global_reactive_power: 0.0896</title></rect><text class="cell" x="312.0" y="526.0" text-anchor="middle">0.09</text><rect class="heat-neg" opacity="0.378" x="346.0" y="488.0" width="66.0" height="66.0"><title>sub_metering_3 vs voltage: -0.2682</title></rect><text class="cell" x="380.0" y="526.0" text-anchor="middle">-0.27</text><rect class="heat-pos" opacity="0.683" x="414.0" y="488.0" width="66.0" height="66.0"><title>sub_metering_3 vs global_intensity: 0.6265</title></rect><text class="cell" x="448.0" y="526.0" text-anchor="middle">0.63</text><rect class="heat-pos" opacity="0.237" x="482.0" y="488.0" width="66.0" height="66.0"><title>sub_metering_3 vs sub_metering_1: 0.1026</title></rect><text class="cell" x="516.0" y="526.0" text-anchor="middle">0.10</text><rect class="heat-pos" opacity="0.219" x="550.0" y="488.0" width="66.0" height="66.0"><title>sub_metering_3 vs sub_metering_2: 0.0809</title></rect><text class="cell" x="584.0" y="526.0" text-anchor="middle">0.08</text><rect class="heat-pos" opacity="1.000" x="618.0" y="488.0" width="66.0" height="66.0"><title>sub_metering_3 vs sub_metering_3: 1.0000</title></rect><text class="cell" x="652.0" y="526.0" text-anchor="middle">1.00</text><rect class="heat-pos" opacity="0.302" x="686.0" y="488.0" width="66.0" height="66.0"><title>sub_metering_3 vs other_consumption: 0.1787</title></rect><text class="cell" x="720.0" y="526.0" text-anchor="middle">0.18</text><rect class="heat-pos" opacity="0.746" x="210.0" y="556.0" width="66.0" height="66.0"><title>other_consumption vs global_active_power: 0.7014</title></rect><text class="cell" x="244.0" y="594.0" text-anchor="middle">0.70</text><rect class="heat-pos" opacity="0.330" x="278.0" y="556.0" width="66.0" height="66.0"><title>other_consumption vs global_reactive_power: 0.2116</title></rect><text class="cell" x="312.0" y="594.0" text-anchor="middle">0.21</text><rect class="heat-neg" opacity="0.381" x="346.0" y="556.0" width="66.0" height="66.0"><title>other_consumption vs voltage: -0.2714</title></rect><text class="cell" x="380.0" y="594.0" text-anchor="middle">-0.27</text><rect class="heat-pos" opacity="0.748" x="414.0" y="556.0" width="66.0" height="66.0"><title>other_consumption vs global_intensity: 0.7033</title></rect><text class="cell" x="448.0" y="594.0" text-anchor="middle">0.70</text><rect class="heat-pos" opacity="0.256" x="482.0" y="556.0" width="66.0" height="66.0"><title>other_consumption vs sub_metering_1: 0.1251</title></rect><text class="cell" x="516.0" y="594.0" text-anchor="middle">0.13</text><rect class="heat-pos" opacity="0.222" x="550.0" y="556.0" width="66.0" height="66.0"><title>other_consumption vs sub_metering_2: 0.0852</title></rect><text class="cell" x="584.0" y="594.0" text-anchor="middle">0.09</text><rect class="heat-pos" opacity="0.302" x="618.0" y="556.0" width="66.0" height="66.0"><title>other_consumption vs sub_metering_3: 0.1787</title></rect><text class="cell" x="652.0" y="594.0" text-anchor="middle">0.18</text><rect class="heat-pos" opacity="1.000" x="686.0" y="556.0" width="66.0" height="66.0"><title>other_consumption vs other_consumption: 1.0000</title></rect><text class="cell" x="720.0" y="594.0" text-anchor="middle">1.00</text></svg>