<svg xmlns="http://www.w3.org/2000/svg" width="900" height="520" viewBox="0 0 900 520"><style>
		.title{font:700 22px Arial,sans-serif; text-anchor:middle; fill:#222}
		.axis{font:600 14px Arial,sans-serif; fill:#333}.tick{font:11px Arial,sans-serif; fill:#333}.cell{font:12px Arial,sans-serif; fill:#111}.cellbig{font:700 28px Arial,sans-serif; fill:#222}.cellvalue{font:700 24px Arial,sans-serif; fill:#222}
		.grid{stroke:#ddd; stroke-width:1}.bar{fill:#4d7ea8}.line{fill:none; stroke:#4d7ea8; stroke-width:3}.point{fill:#222}.heat-pos{fill:#4d7ea8}.heat-neg{fill:#d45d5d}.matrix{fill:#e7eef6; stroke:#fff; stroke-width:2}
	</style><text class="title" x="450" y="35">Distribucion de Global_active_power</text><line x1="90.0" y1="410.0" x2="850.0" y2="410.0" stroke="#222"/><line x1="90.0" y1="70.0" x2="90.0" y2="410.0" stroke="#222"/><text class="axis" x="470.0" y="500" text-anchor="middle">Global_active_power (kW)</text><text class="axis" x="22" y="240.0" transform="rotate(-90 22 240.0)" text-anchor="middle">Frecuencia</text><rect class="bar" x="92.00" y="70.00" width="34.00" height="340.00"><title>0.1-0.6: 1037237.0000</title></rect><text class="tick" x="109.00" y="445" text-anchor="end" transform="rotate(-45 109.00 445)">0.1-0.6</text><rect class="bar" x="130.00" y="356.18" width="34.00" height="53.82"><title>0.6-1.2: 164180.0000</title></rect><text class="tick" x="147.00" y="445" text-anchor="end" transform="rotate(-45 147.00 445)">0.6-1.2</text><rect class="bar" x="168.00" y="262.11" width="34.00" height="147.89"><title>1.2-1.7: 451182.0000</title></rect><text class="tick" x="185.00" y="445" text-anchor="end" transform="rotate(-45 185.00 445)">1.2-1.7</text><rect class="bar" x="206.00" y="359.99" width="34.00" height="50.01"><title>1.7-2.3: 152562.0000</title></rect><text class="tick" x="223.00" y="445" text-anchor="end" transform="rotate(-45 223.00 445)">1.7-2.3</text><rect class="bar" x="244.00" y="377.47" width="34.00" height="32.53"><title>2.3-2.8: 99227.0000</title></rect><text class="tick" x="261.00" y="445" text-anchor="end" transform="rotate(-45 261.00 445)">2.3-2.8</text><rect class="bar" x="282.00" y="392.87" width="34.00" height="17.13"><title>2.8-3.4: 52256.0000</title></rect><text class="tick" x="299.00" y="445" text-anchor="end" transform="rotate(-45 299.00 445)">2.8-3.4</text><rect class="bar" x="320.00" y="396.13" width="34.00" height="13.87"><title>3.4-3.9: 42325.0000</title></rect><text class="tick" x="337.00" y="445" text-anchor="end" transform="rotate(-45 337.00 445)">3.4-3.9</text><rect class="bar" x="358.00" y="402.98" width="34.00" height="7.02"><title>3.9-4.5: 21427.0000</title></rect><text class="tick" x="375.00" y="445" text-anchor="end" transform="rotate(-45 375.00 445)">3.9-4.5</text><rect class="bar" x="396.00" y="406.01" width="34.00" height="3.99"><title>4.5-5.0: 12175.0000</title></rect><text class="tick" x="413.00" y="445" text-anchor="end" transform="rotate(-45 413.00 445)">4.5-5.0</text><rect class="bar" x="434.00" y="407.58" width="34.00" height="2.42"><title>5.0-5.6: 7382.0000</title></rect><text class="tick" x="451.00" y="445" text-anchor="end" transform="rotate(-45 451.00 445)">5.0-5.6</text><rect class="bar" x="472.00" y="408.42" width="34.00" height="1.58"><title>5.6-6.2: 4815.0000</title></rect><text class="tick" x="489.00" y="445" text-anchor="end" transform="rotate(-45 489.00 445)">5.6-6.2</text><rect class="bar" x="510.00" y="409.26" width="34.00" height="0.74"><title>6.2-6.7: 2263.0000</title></rect><text class="tick" x="527.00" y="445" text-anchor="end" transform="rotate(-45 527.00 445)">6.2-6.7</text><rect class="bar" x="548.00" y="409.66" width="34.00" height="0.34"><title>6.7-7.3: 1042.0000</title></rect><text class="tick" x="565.00" y="445" text-anchor="end" transform="rotate(-45 565.00 445)">6.7-7.3</text><rect class="bar" x="586.00" y="409.79" width="34.00" height="0.21"><title>7.3-7.8: 636.0000</title></rect><text class="tick" x="603.00" y="445" text-anchor="end" transform="rotate(-45 603.00 445)">7.3-7.8</text><rect class="bar" x="624.00" y="409.88" width="34.00" height="0.12"><title>7.8-8.4: 376.0000</title></rect><text class="tick" x="641.00" y="445" text-anchor="end" transform="rotate(-45 641.00 445)">7.8-8.4</text><rect class="bar" x="662.00" y="409.96" width="34.00" height="0.04"><title>8.4-8.9: 113.0000</title></rect><text class="tick" x="679.00" y="445" text-anchor="end" transform="rotate(-45 679.00 445)">8.4-8.9</text><rect class="bar" x="700.00" y="409.98" width="34.00" height="0.02"><title>8.9-9.5: 48.0000</title></rect><text class="tick" x="717.00" y="445" text-anchor="end" transform="rotate(-45 717.00 445)">8.9-9.5</text><rect class="bar" x="738.00" y="409.99" width="34.00" height="0.01"><title>9.5-10.0: 24.0000</title></rect><text class="tick" x="755.00" y="445" text-anchor="end" transform="rotate(-45 755.00 445)">9.5-10.0</text><rect class="bar" x="776.00" y="410.00" width="34.00" height="0.00"><title>10.0-10.6: 7.0000</title></rect><text class="tick" x="793.00" y="445" text-anchor="end" transform="rotate(-45 793.00 445)">10.0-10.6</text><rect class="bar" x="814.00" y="410.00" width="34.00" height="0.00"><title>10.6-11.1: 3.0000</title></rect><text class="tick" x="831.00" y="445" text-anchor="end" transform="rotate(-45 831.00 445)">10.6-11.1</text><line class="grid" x1="90.0" y1="410.0" x2="850.0" y2="410.0"/><text class="tick" x="82" y="414.0" text-anchor="end">0.00</text><line class="grid" x1="90.0" y1="342.0" x2="850.0" y2="342.0"/><text class="tick" x="82" y="346.0" text-anchor="end">207447.40</text><line class="grid" x1="90.0" y1="274.0" x2="850.0" y2="274.0"/><text class="tick" x="82" y="278.0" text-anchor="end">414894.80</text><line class="grid" x1="90.0" y1="206.0" x2="850.0" y2="206.0"/><text class="tick" x="82" y="210.0" text-anchor="end">622342.20</text><line class="grid" x1="90.0" y1="138.0" x2="850.0" y2="138.0"/><text class="tick" x="82" y="142.0" text-anchor="end">829789.60</text><line class="grid" x1="90.0" y1="70.0" x2="850.0" y2="70.0"/><text class="tick" x="82" y="74.0" text-anchor="end">1037237.00</text></svg>